<svg width="207" height="60" viewBox="0 0 207 60" fill="none" xmlns="http://www.w3.org/2000/svg">
<g clip-path="url(#clip0_800_57849)">
<path d="M41.564 0H18.436C8.25408 0 0 8.25408 0 18.436V41.564C0 51.7459 8.25408 60 18.436 60H41.564C51.7459 60 60 51.7459 60 41.564V18.436C60 8.25408 51.7459 0 41.564 0Z" fill="#7069FE"/>
<g clip-path="url(#clip1_800_57849)">
<path d="M12.9533 48C11.9191 48 11.0191 47.3854 10.6578 46.4342C10.2966 45.483 10.5684 44.4391 11.3505 43.7745L15.8806 39.9247C13.8843 36.9626 12.8378 33.5224 12.849 29.947C12.8639 25.1447 14.7757 20.6351 18.2331 17.2498C21.6893 13.8646 26.2851 12 31.1739 12C41.2793 12 49.5002 20.0753 49.5002 30.0018C49.5002 34.7492 47.6355 39.2296 44.2501 42.616C40.8684 45.9976 36.352 47.9098 31.5315 48H31.5265H12.9533ZM31.0175 43.655C38.7406 43.655 45.0459 37.5528 45.0732 30.0506C45.0868 26.3934 43.6467 22.9533 41.0198 20.3644C38.393 17.7742 34.897 16.3486 31.1752 16.3486C23.5117 16.3486 17.276 22.4728 17.276 30.0018C17.276 32.6871 18.0692 35.2858 19.5702 37.5162C19.7738 37.8186 19.9922 38.1174 20.2194 38.404C21.1716 39.6003 21.0053 41.3124 19.8408 42.3039L18.2517 43.655H31.0188H31.0175Z" fill="white"/>
<path d="M32.0217 28.3628C30.8138 28.3628 29.8318 27.3982 29.8318 26.2117C29.8318 25.0251 30.8138 24.0605 32.0217 24.0605C33.2296 24.0605 34.2116 25.0251 34.2116 26.2117C34.2116 27.3982 33.2296 28.3628 32.0217 28.3628Z" fill="white"/>
<path d="M39.3612 28.3628C38.1532 28.3628 37.1713 27.3982 37.1713 26.2117C37.1713 25.0251 38.1532 24.0605 39.3612 24.0605C40.5691 24.0605 41.5511 25.0251 41.5511 26.2117C41.5511 27.3982 40.5691 28.3628 39.3612 28.3628Z" fill="white"/>
</g>
</g>
<path d="M88.36 39.77C86.06 39.77 84.12 39.34 82.54 38.48C80.96 37.6 79.76 36.35 78.94 34.73C78.14 33.11 77.74 31.18 77.74 28.94C77.74 27.26 77.97 25.76 78.43 24.44C78.91 23.1 79.59 21.96 80.47 21.02C81.37 20.06 82.46 19.33 83.74 18.83C85.04 18.33 86.51 18.08 88.15 18.08C89.35 18.08 90.53 18.24 91.69 18.56C92.85 18.86 93.91 19.36 94.87 20.06C95.15 20.26 95.33 20.49 95.41 20.75C95.49 21.01 95.49 21.28 95.41 21.56C95.35 21.82 95.22 22.05 95.02 22.25C94.84 22.45 94.61 22.57 94.33 22.61C94.07 22.65 93.78 22.57 93.46 22.37C92.68 21.83 91.86 21.44 91 21.2C90.14 20.94 89.19 20.81 88.15 20.81C86.59 20.81 85.27 21.13 84.19 21.77C83.13 22.41 82.33 23.34 81.79 24.56C81.25 25.76 80.98 27.22 80.98 28.94C80.98 31.6 81.61 33.62 82.87 35C84.13 36.38 86 37.07 88.48 37.07C89.38 37.07 90.26 36.99 91.12 36.83C92 36.65 92.84 36.4 93.64 36.08L93.01 37.64V30.65H89.14C88.74 30.65 88.42 30.55 88.18 30.35C87.96 30.13 87.85 29.83 87.85 29.45C87.85 29.07 87.96 28.79 88.18 28.61C88.42 28.41 88.74 28.31 89.14 28.31H94.33C94.75 28.31 95.07 28.42 95.29 28.64C95.51 28.86 95.62 29.18 95.62 29.6V37.16C95.62 37.52 95.55 37.83 95.41 38.09C95.29 38.33 95.08 38.51 94.78 38.63C93.92 38.97 92.91 39.25 91.75 39.47C90.59 39.67 89.46 39.77 88.36 39.77ZM105.293 39.77C104.113 39.77 103.123 39.55 102.323 39.11C101.543 38.67 100.953 38.02 100.553 37.16C100.173 36.28 99.9834 35.18 99.9834 33.86V26.18C99.9834 25.66 100.113 25.28 100.373 25.04C100.633 24.78 101.003 24.65 101.483 24.65C101.963 24.65 102.333 24.78 102.593 25.04C102.873 25.28 103.013 25.66 103.013 26.18V33.89C103.013 35.07 103.253 35.94 103.733 36.5C104.213 37.06 104.973 37.34 106.013 37.34C107.153 37.34 108.073 36.96 108.773 36.2C109.493 35.42 109.853 34.4 109.853 33.14V26.18C109.853 25.66 109.983 25.28 110.243 25.04C110.503 24.78 110.883 24.65 111.383 24.65C111.863 24.65 112.233 24.78 112.493 25.04C112.753 25.28 112.883 25.66 112.883 26.18V38.18C112.883 39.2 112.393 39.71 111.413 39.71C110.953 39.71 110.593 39.58 110.333 39.32C110.073 39.04 109.943 38.66 109.943 38.18V35.63L110.333 36.29C109.933 37.41 109.293 38.27 108.413 38.87C107.533 39.47 106.493 39.77 105.293 39.77ZM124.023 39.77C122.423 39.77 121.043 39.47 119.883 38.87C118.743 38.25 117.853 37.38 117.213 36.26C116.593 35.12 116.283 33.77 116.283 32.21C116.283 30.69 116.593 29.36 117.213 28.22C117.833 27.08 118.683 26.19 119.763 25.55C120.843 24.91 122.073 24.59 123.453 24.59C124.473 24.59 125.383 24.76 126.183 25.1C126.983 25.42 127.663 25.9 128.223 26.54C128.803 27.16 129.233 27.92 129.513 28.82C129.813 29.72 129.963 30.73 129.963 31.85C129.963 32.19 129.863 32.45 129.663 32.63C129.463 32.79 129.163 32.87 128.763 32.87H118.683V31.01H127.923L127.413 31.43C127.413 30.43 127.263 29.58 126.963 28.88C126.683 28.18 126.253 27.65 125.673 27.29C125.113 26.91 124.413 26.72 123.573 26.72C122.633 26.72 121.833 26.94 121.173 27.38C120.533 27.82 120.043 28.43 119.703 29.21C119.363 29.99 119.193 30.9 119.193 31.94V32.12C119.193 33.88 119.603 35.21 120.423 36.11C121.263 36.99 122.473 37.43 124.053 37.43C124.653 37.43 125.283 37.35 125.943 37.19C126.623 37.03 127.263 36.76 127.863 36.38C128.203 36.18 128.503 36.09 128.763 36.11C129.043 36.13 129.263 36.22 129.423 36.38C129.603 36.54 129.713 36.74 129.753 36.98C129.793 37.22 129.753 37.47 129.633 37.73C129.513 37.97 129.303 38.19 129.003 38.39C128.323 38.85 127.533 39.2 126.633 39.44C125.733 39.66 124.863 39.77 124.023 39.77ZM138.397 39.77C137.517 39.77 136.607 39.67 135.667 39.47C134.747 39.27 133.897 38.93 133.117 38.45C132.857 38.27 132.677 38.07 132.577 37.85C132.477 37.63 132.437 37.41 132.457 37.19C132.497 36.95 132.587 36.75 132.727 36.59C132.887 36.41 133.077 36.3 133.297 36.26C133.537 36.22 133.787 36.27 134.047 36.41C134.827 36.85 135.577 37.16 136.297 37.34C137.017 37.5 137.727 37.58 138.427 37.58C139.487 37.58 140.287 37.39 140.827 37.01C141.367 36.63 141.637 36.12 141.637 35.48C141.637 34.96 141.457 34.56 141.097 34.28C140.737 33.98 140.197 33.75 139.477 33.59L136.627 33.02C135.387 32.76 134.447 32.3 133.807 31.64C133.167 30.98 132.847 30.14 132.847 29.12C132.847 28.2 133.097 27.4 133.597 26.72C134.097 26.04 134.797 25.52 135.697 25.16C136.597 24.78 137.637 24.59 138.817 24.59C139.697 24.59 140.527 24.7 141.307 24.92C142.087 25.14 142.807 25.47 143.467 25.91C143.727 26.05 143.897 26.24 143.977 26.48C144.057 26.7 144.067 26.92 144.007 27.14C143.967 27.36 143.867 27.56 143.707 27.74C143.547 27.9 143.347 28 143.107 28.04C142.887 28.06 142.637 28 142.357 27.86C141.757 27.48 141.157 27.21 140.557 27.05C139.977 26.89 139.397 26.81 138.817 26.81C137.757 26.81 136.957 27.01 136.417 27.41C135.897 27.79 135.637 28.31 135.637 28.97C135.637 29.47 135.797 29.88 136.117 30.2C136.437 30.52 136.937 30.75 137.617 30.89L140.467 31.46C141.767 31.72 142.747 32.16 143.407 32.78C144.087 33.4 144.427 34.24 144.427 35.3C144.427 36.68 143.877 37.77 142.777 38.57C141.677 39.37 140.217 39.77 138.397 39.77ZM153.891 39.77C152.691 39.77 151.681 39.56 150.861 39.14C150.041 38.72 149.431 38.1 149.031 37.28C148.631 36.46 148.431 35.46 148.431 34.28V27.2H146.631C146.231 27.2 145.921 27.1 145.701 26.9C145.481 26.68 145.371 26.39 145.371 26.03C145.371 25.65 145.481 25.36 145.701 25.16C145.921 24.96 146.231 24.86 146.631 24.86H148.431V21.77C148.431 21.27 148.561 20.89 148.821 20.63C149.101 20.37 149.481 20.24 149.961 20.24C150.441 20.24 150.811 20.37 151.071 20.63C151.331 20.89 151.461 21.27 151.461 21.77V24.86H154.971C155.371 24.86 155.681 24.96 155.901 25.16C156.121 25.36 156.231 25.65 156.231 26.03C156.231 26.39 156.121 26.68 155.901 26.9C155.681 27.1 155.371 27.2 154.971 27.2H151.461V34.04C151.461 35.1 151.681 35.9 152.121 36.44C152.581 36.98 153.321 37.25 154.341 37.25C154.701 37.25 155.011 37.22 155.271 37.16C155.551 37.08 155.781 37.03 155.961 37.01C156.181 37.01 156.361 37.09 156.501 37.25C156.641 37.39 156.711 37.67 156.711 38.09C156.711 38.39 156.651 38.67 156.531 38.93C156.431 39.19 156.241 39.36 155.961 39.44C155.721 39.52 155.391 39.59 154.971 39.65C154.571 39.73 154.211 39.77 153.891 39.77ZM163.582 39.77C162.022 39.77 160.842 39.32 160.042 38.42C159.262 37.5 158.872 36.18 158.872 34.46V19.67C158.872 19.17 159.002 18.79 159.262 18.53C159.522 18.27 159.892 18.14 160.372 18.14C160.852 18.14 161.222 18.27 161.482 18.53C161.762 18.79 161.902 19.17 161.902 19.67V34.28C161.902 35.28 162.102 36.03 162.502 36.53C162.922 37.01 163.522 37.25 164.302 37.25C164.482 37.25 164.642 37.25 164.782 37.25C164.922 37.23 165.062 37.21 165.202 37.19C165.442 37.17 165.612 37.24 165.712 37.4C165.812 37.54 165.862 37.84 165.862 38.3C165.862 38.72 165.772 39.05 165.592 39.29C165.412 39.51 165.122 39.65 164.722 39.71C164.542 39.73 164.352 39.74 164.152 39.74C163.952 39.76 163.762 39.77 163.582 39.77ZM171.141 45.11C170.781 45.11 170.481 45.01 170.241 44.81C170.021 44.63 169.891 44.38 169.851 44.06C169.831 43.76 169.891 43.43 170.031 43.07L172.071 38.48V39.77L166.461 26.72C166.321 26.36 166.271 26.02 166.311 25.7C166.351 25.38 166.501 25.13 166.761 24.95C167.021 24.75 167.371 24.65 167.811 24.65C168.191 24.65 168.491 24.74 168.711 24.92C168.931 25.1 169.131 25.41 169.311 25.85L173.841 37.04H173.001L177.591 25.85C177.771 25.39 177.981 25.08 178.221 24.92C178.461 24.74 178.791 24.65 179.211 24.65C179.571 24.65 179.851 24.75 180.051 24.95C180.271 25.13 180.401 25.38 180.441 25.7C180.501 26 180.451 26.33 180.291 26.69L172.791 43.94C172.591 44.4 172.361 44.71 172.101 44.87C171.861 45.03 171.541 45.11 171.141 45.11Z" fill="#1B1B1B"/>
<defs>
<clipPath id="clip0_800_57849">
<rect width="60" height="60" fill="white"/>
</clipPath>
<clipPath id="clip1_800_57849">
<rect width="39" height="36" fill="white" transform="translate(10.5 12)"/>
</clipPath>
</defs>
</svg>
